<?xml version="1.0" standalone="no"?>
<!DOCTYPE svg PUBLIC "-//W3C//DTD SVG 20010904//EN"
 "http://www.w3.org/TR/2001/REC-SVG-20010904/DTD/svg10.dtd">
<svg version="1.0" xmlns="http://www.w3.org/2000/svg"
 width="245.000000pt" height="20.000000pt" viewBox="0 0 245.000000 20.000000"
 preserveAspectRatio="xMidYMid meet">

<g transform="translate(0.000000,20.000000) scale(0.100000,-0.100000)"
fill="#000000" fill-opacity="0.5" stroke="none">
<path d="M1156 177 c-12 -25 0 -127 16 -143 21 -22 71 -27 93 -10 18 13 17 14
-24 9 -52 -7 -71 10 -71 63 0 31 2 33 43 37 l42 4 -42 1 c-37 2 -42 5 -45 30
-4 23 -5 24 -12 9z"/>
<path d="M1706 177 c-15 -31 -2 -138 19 -153 28 -20 44 -17 18 4 -19 14 -23
28 -25 92 -2 51 -6 69 -12 57z"/>
<path d="M1781 118 c-1 -76 -1 -78 29 -93 38 -20 52 -19 84 6 33 26 35 71 4
93 -25 18 -65 21 -88 6 -12 -8 -16 -2 -21 28 -5 27 -7 16 -8 -40z m109 -8 c24
-24 25 -38 3 -62 -32 -36 -103 -14 -103 32 0 21 36 50 62 50 10 0 27 -9 38
-20z"/>
<path d="M0 90 c0 -42 4 -52 25 -66 20 -13 31 -14 49 -6 15 6 28 7 40 0 12 -7
26 -7 42 1 22 9 24 16 22 68 l-1 58 -6 -55 c-6 -53 -7 -55 -36 -55 -29 0 -30
2 -36 55 l-6 55 -2 -45 c-2 -56 -12 -73 -42 -68 -21 3 -24 9 -27 56 -4 66 -22
69 -22 2z"/>
<path d="M212 87 c-2 -52 0 -59 22 -68 16 -8 30 -8 42 -1 12 7 25 6 40 0 18
-8 29 -7 49 6 21 14 25 24 25 66 0 67 -18 64 -22 -2 -3 -49 -5 -53 -28 -53
-23 0 -25 4 -28 53 -2 28 -7 52 -12 52 -5 0 -10 -24 -12 -52 -3 -51 -4 -53
-33 -53 -29 0 -30 2 -36 55 l-6 55 -1 -58z"/>
<path d="M410 90 c0 -42 4 -52 25 -66 20 -13 31 -14 49 -6 15 6 28 7 40 0 12
-7 26 -7 42 1 22 9 24 16 22 68 l-1 58 -6 -55 c-6 -53 -7 -55 -36 -55 -29 0
-30 2 -36 55 l-6 55 -2 -45 c-2 -56 -12 -73 -42 -68 -21 3 -24 9 -27 56 -4 66
-22 69 -22 2z"/>
<path d="M661 127 c-6 -6 -10 -36 -9 -66 l1 -56 6 54 c11 97 70 95 72 -3 l2
-51 6 52 c7 58 20 77 47 71 15 -2 20 -14 22 -53 4 -67 22 -84 22 -21 0 76 -8
84 -89 84 -38 -1 -75 -6 -80 -11z"/>
<path d="M869 119 c-27 -27 -21 -67 14 -93 24 -18 31 -19 59 -8 25 9 34 9 39
0 12 -20 22 18 15 54 -3 17 -14 40 -23 50 -22 25 -78 23 -104 -3z m96 -9 c15
-16 17 -26 9 -48 -8 -22 -16 -28 -46 -30 -28 -2 -40 2 -52 20 -20 29 -20 34 4
58 26 26 62 26 85 0z"/>
<path d="M1027 133 c-4 -3 -7 -17 -7 -29 0 -24 12 -30 70 -36 42 -5 31 -33
-15 -36 -58 -5 -69 -22 -14 -22 55 0 72 11 67 41 -2 17 -10 25 -28 27 -56 6
-71 13 -68 30 2 12 17 19 53 23 l50 6 -51 1 c-28 1 -54 -1 -57 -5z"/>
<path d="M1322 124 c-25 -17 -31 -74 -9 -93 24 -19 71 -23 92 -8 18 14 16 15
-27 10 -40 -5 -48 -2 -57 16 -11 20 -10 21 54 21 72 0 83 12 45 50 -24 24 -67
26 -98 4z m79 -4 c37 -21 23 -40 -30 -40 -57 0 -71 12 -39 34 26 19 42 20 69
6z"/>
<path d="M1480 120 c-15 -15 -20 -32 -19 -67 1 -49 3 -47 14 20 5 31 12 41 38
52 27 12 29 14 10 15 -13 0 -32 -9 -43 -20z"/>
<path d="M1562 124 c-15 -11 -22 -25 -22 -50 0 -29 5 -37 35 -51 29 -14 39
-14 61 -4 22 10 29 9 35 -1 5 -8 9 8 9 39 0 42 -4 55 -22 67 -12 9 -34 16 -48
16 -14 0 -36 -7 -48 -16z m88 -14 c24 -24 25 -38 3 -62 -32 -36 -103 -14 -103
32 0 21 36 50 62 50 10 0 27 -9 38 -20z"/>
<path d="M1982 117 c-27 -29 -28 -48 -3 -78 20 -25 82 -32 102 -12 8 8 1 10
-30 6 -47 -6 -71 8 -71 42 0 25 29 55 54 55 9 0 27 -5 39 -12 20 -10 21 -10 8
5 -20 25 -73 21 -99 -6z"/>
<path d="M2130 120 c-28 -28 -25 -64 6 -89 32 -25 46 -26 84 -6 24 13 30 22
30 50 0 59 -77 88 -120 45z m91 -9 c20 -16 22 -23 14 -47 -9 -24 -17 -30 -47
-32 -28 -2 -40 2 -52 20 -20 29 -20 34 4 58 25 25 51 25 81 1z"/>
<path d="M2291 127 c-6 -6 -10 -36 -9 -66 l1 -56 6 54 c11 97 70 95 72 -3 l2
-51 6 52 c7 58 20 77 47 71 15 -2 20 -15 25 -63 l6 -60 -1 65 -1 65 -72 1
c-40 1 -76 -3 -82 -9z"/>
<path d="M1925 20 c3 -5 8 -10 11 -10 2 0 4 5 4 10 0 6 -5 10 -11 10 -5 0 -7
-4 -4 -10z"/>
</g>
</svg>
