<?xml version="1.0" standalone="no"?>
<!DOCTYPE svg PUBLIC "-//W3C//DTD SVG 20010904//EN"
 "http://www.w3.org/TR/2001/REC-SVG-20010904/DTD/svg10.dtd">
<svg version="1.0" xmlns="http://www.w3.org/2000/svg"
 width="116.000000pt" height="108.000000pt" viewBox="0 0 116.000000 108.000000"
 preserveAspectRatio="xMidYMid meet">

<g transform="translate(0.000000,108.000000) scale(0.100000,-0.100000)"
fill="#000000" fill-opacity="0.5" stroke="none">
<path class="svg-lizard" d="M431 1064 c-182 -49 -338 -207 -386 -391 -19 -73 -19 -203 0 -276 39
-151 147 -283 289 -353 l80 -39 166 0 166 0 80 39 c142 70 250 202 289 353 19
73 19 203 0 276 -48 186 -205 343 -390 392 -74 19 -222 19 -294 -1z m204 -33
c131 -58 189 -194 147 -344 -18 -61 -18 -68 -3 -61 9 3 26 9 39 11 19 5 22 1
22 -26 0 -21 5 -31 15 -31 8 0 15 -7 15 -15 0 -8 4 -15 9 -15 6 0 6 -12 0 -30
-6 -16 -15 -30 -21 -30 -22 0 -47 22 -56 50 -12 34 -28 39 -37 11 -3 -10 -19
-21 -35 -24 -34 -7 -60 -49 -60 -97 0 -38 6 -38 47 2 l34 33 27 -35 c26 -33
55 -100 47 -108 -10 -10 -67 12 -79 30 -14 20 -17 20 -39 5 -29 -19 -59 -79
-55 -110 3 -19 8 -22 40 -19 83 7 103 -40 36 -88 -49 -36 -98 -39 -145 -10
-48 29 -56 52 -51 144 5 91 13 110 99 238 78 115 101 175 101 263 1 141 -69
225 -212 256 -27 6 -50 15 -50 21 0 15 116 0 165 -21z m-108 -16 c68 -20 136
-74 163 -130 19 -39 22 -58 18 -123 -5 -88 -24 -132 -112 -260 -63 -93 -88
-161 -88 -243 0 -49 -3 -59 -17 -59 -9 0 -22 -5 -29 -12 -15 -15 -16 -64 -2
-73 16 -10 11 -61 -7 -76 -21 -17 -40 -17 -69 -1 -26 14 -29 59 -6 64 13 2 16
14 14 49 -3 38 2 52 24 78 26 31 26 34 14 84 -15 67 -3 118 51 208 39 65 47
89 30 89 -19 0 -41 32 -41 58 l0 26 -33 -32 c-30 -29 -66 -45 -53 -23 3 5 -4
11 -16 14 -18 5 -19 8 -8 21 8 11 9 16 1 16 -22 0 -11 20 12 21 12 0 16 3 10
6 -26 10 -12 22 21 16 23 -3 42 1 61 13 l28 18 29 -37 c30 -37 48 -47 48 -26
0 7 20 34 45 60 51 55 55 76 21 133 -46 78 -161 116 -250 82 -41 -16 -93 -64
-137 -127 -10 -13 -20 -21 -23 -18 -11 11 72 123 108 148 37 24 100 50 127 51
8 0 38 -7 66 -15z"/>
</g>
</svg>
