<?xml version="1.0" standalone="no"?>
<!DOCTYPE svg PUBLIC "-//W3C//DTD SVG 20010904//EN"
 "http://www.w3.org/TR/2001/REC-SVG-20010904/DTD/svg10.dtd">
<svg version="1.0" xmlns="http://www.w3.org/2000/svg"
 width="293.000000pt" height="78.000000pt" viewBox="0 0 293.000000 78.000000"
 preserveAspectRatio="xMidYMid meet">

<g transform="translate(0.000000,78.000000) scale(0.100000,-0.100000)"
fill="#000000" fill-opacity = "0.3" stroke="none">
<path d="M1150 766 c-8 -11 -11 -58 -8 -163 3 -136 5 -151 26 -181 60 -84 190
-96 255 -24 39 43 -16 92 -65 58 -33 -23 -75 -20 -103 9 -20 19 -25 34 -25 75
l0 50 68 0 c72 0 92 10 92 45 0 35 -20 45 -92 45 l-68 0 0 38 c0 21 -5 43 -12
50 -16 16 -53 15 -68 -2z"/>
<path d="M2428 769 c-16 -9 -18 -29 -18 -177 0 -136 3 -172 16 -190 19 -27 65
-52 97 -52 56 0 61 66 7 87 l-30 11 0 144 c0 114 -3 148 -16 166 -17 24 -30
27 -56 11z"/>
<path d="M2618 769 c-16 -9 -18 -27 -18 -152 0 -129 2 -146 23 -182 63 -110
221 -110 284 0 60 106 -12 233 -135 237 -20 1 -47 -2 -59 -6 -22 -7 -23 -5
-23 38 0 63 -30 90 -72 65z m197 -204 c48 -47 17 -125 -51 -125 -55 0 -94 71
-61 112 33 42 78 48 112 13z"/>
<path d="M94 666 c-62 -28 -74 -56 -74 -180 0 -115 6 -136 41 -136 39 0 49 27
49 130 0 81 3 99 16 104 34 13 44 -12 44 -113 0 -103 7 -121 47 -121 34 0 43
29 43 133 0 78 3 96 16 101 34 13 44 -12 44 -106 0 -100 10 -128 44 -128 42 0
48 20 44 144 -3 105 -5 117 -27 140 -36 38 -91 50 -137 31 -22 -9 -41 -12 -48
-6 -21 17 -71 20 -102 7z"/>
<path d="M574 671 c-110 -27 -160 -164 -91 -254 44 -58 135 -85 189 -56 14 8
23 8 31 0 15 -15 50 -14 65 1 17 17 16 170 -2 211 -15 38 -79 97 -104 97 -9 0
-26 2 -37 4 -11 3 -34 1 -51 -3z m75 -96 c46 -23 54 -66 20 -109 -26 -33 -73
-35 -106 -4 -31 29 -30 72 2 103 28 29 45 31 84 10z"/>
<path d="M884 670 c-55 -22 -79 -93 -49 -149 18 -35 34 -43 109 -50 34 -4 61
-11 64 -18 3 -10 -17 -13 -77 -13 -71 0 -82 -2 -95 -22 -20 -28 -20 -33 0 -52
22 -23 175 -22 214 1 46 27 62 81 39 126 -22 42 -50 57 -115 57 -44 0 -63 4
-67 14 -9 22 2 26 78 26 42 0 76 5 83 12 18 18 14 56 -7 68 -23 12 -147 12
-177 0z"/>
<path d="M1577 666 c-79 -29 -122 -92 -115 -167 8 -84 79 -149 163 -149 51 0
95 25 95 54 0 36 -21 47 -73 40 -45 -7 -77 5 -77 28 0 5 45 8 101 7 113 -2
123 4 115 59 -14 93 -122 159 -209 128z m78 -88 c40 -18 29 -28 -30 -28 -56 0
-69 11 -37 29 22 14 36 13 67 -1z"/>
<path d="M1951 670 c-42 -10 -79 -37 -108 -80 -20 -28 -23 -46 -23 -124 0 -97
7 -116 45 -116 37 0 45 20 45 105 0 94 13 121 65 131 39 7 58 25 53 50 -5 27
-39 42 -77 34z"/>
<path d="M2147 666 c-73 -27 -107 -76 -107 -154 0 -54 25 -100 72 -135 32 -24
116 -34 148 -17 16 9 25 9 33 1 6 -6 19 -11 28 -11 64 0 66 201 2 272 -42 47
-117 65 -176 44z m99 -99 c35 -31 38 -82 5 -109 -78 -62 -169 43 -95 110 32
28 56 28 90 -1z"/>
<path d="M560 241 c0 -68 3 -84 20 -101 23 -23 68 -26 96 -6 25 19 12 31 -15
15 -14 -10 -28 -10 -48 -3 -25 8 -28 15 -31 57 l-3 47 35 0 c19 0 38 5 41 10
4 6 -10 10 -34 10 -34 0 -41 3 -41 19 0 11 -4 23 -10 26 -6 4 -10 -23 -10 -74z"/>
<path d="M700 306 c0 -9 5 -16 10 -16 6 0 10 4 10 9 0 6 -4 13 -10 16 -5 3
-10 -1 -10 -9z"/>
<path d="M25 245 c-30 -30 -32 -64 -4 -99 22 -28 75 -36 97 -14 19 19 14 30
-7 18 -43 -23 -91 2 -91 47 0 41 60 69 88 41 6 -6 15 -8 19 -4 11 11 -27 36
-54 36 -13 0 -35 -11 -48 -25z"/>
<path d="M176 249 c-22 -18 -26 -28 -26 -75 0 -30 5 -54 10 -54 6 0 10 22 10
49 0 51 17 81 46 81 8 0 14 5 14 10 0 16 -26 11 -54 -11z"/>
<path d="M262 263 c-15 -6 -42 -56 -42 -78 0 -26 46 -65 78 -65 33 0 71 23 54
34 -6 3 -13 2 -17 -4 -9 -14 -58 -13 -73 2 -24 24 -12 33 45 33 52 0 58 2 61
22 6 42 -58 76 -106 56z m69 -23 c38 -21 23 -40 -31 -40 -37 0 -50 4 -50 15 0
28 47 43 81 25z"/>
<path d="M416 249 c-69 -54 6 -161 85 -119 13 7 19 7 19 0 0 -5 5 -10 10 -10
6 0 10 23 10 50 0 86 -64 127 -124 79z m86 -16 c35 -31 10 -93 -38 -93 -48 0
-70 55 -37 92 20 22 51 23 75 1z"/>
<path d="M700 195 c0 -43 4 -75 10 -75 6 0 10 32 10 75 0 43 -4 75 -10 75 -6
0 -10 -32 -10 -75z"/>
<path d="M732 259 c3 -8 16 -42 28 -77 13 -34 28 -61 33 -59 11 3 56 112 56
137 1 24 -16 -1 -37 -55 -13 -32 -22 -45 -26 -35 -3 8 -12 33 -19 54 -8 22
-20 42 -27 44 -8 3 -11 -1 -8 -9z"/>
<path d="M894 260 c-11 -4 -26 -21 -33 -37 -22 -53 13 -103 71 -103 30 0 66
24 50 34 -6 3 -13 2 -17 -4 -9 -14 -58 -13 -73 2 -25 25 -12 33 48 30 59 -4
60 -3 60 22 0 49 -53 78 -106 56z m67 -20 c38 -21 23 -40 -31 -40 -37 0 -50 4
-50 15 0 28 47 43 81 25z"/>
<path d="M590 57 c0 -9 -19 -13 -67 -13 -61 1 -68 -1 -68 -19 0 -12 8 -21 20
-22 l20 -3 -20 9 c-18 9 -17 10 7 10 15 1 30 6 34 13 5 7 10 4 15 -10 7 -17
15 -22 41 -20 31 3 33 5 30 36 -4 31 -12 45 -12 19z m-103 -23 c-3 -3 -12 -4
-19 -1 -8 3 -5 6 6 6 11 1 17 -2 13 -5z m86 -9 c1 -5 -6 -11 -15 -13 -11 -2
-18 3 -18 13 0 17 30 18 33 0z"/>
<path d="M400 41 c0 -15 -5 -18 -22 -13 -21 5 -21 6 -3 12 11 4 -18 7 -65 6
-83 -1 -85 -2 -87 -26 -1 -22 -1 -22 4 -2 6 28 20 28 26 0 l4 -23 2 23 c1 24
21 32 21 8 0 -20 52 -31 65 -14 5 8 19 12 30 10 l20 -5 -20 -7 c-13 -5 -5 -7
25 -7 25 1 37 2 28 5 -20 4 -24 28 -6 34 7 3 6 7 -5 11 -12 5 -17 1 -17 -12z
m-60 -10 c0 -14 -18 -23 -30 -16 -6 4 -8 11 -5 16 8 12 35 12 35 0z"/>
<path d="M610 40 c0 -24 24 -42 44 -34 25 10 15 36 -16 45 -23 6 -28 4 -28
-11z m50 -9 c0 -14 -18 -23 -30 -16 -6 4 -8 11 -5 16 8 12 35 12 35 0z"/>
<path d="M4 25 c1 -19 8 -20 101 -20 93 0 100 1 101 20 1 15 0 16 -3 3 -6 -25
-21 -22 -26 5 l-4 22 -2 -22 c-1 -28 -21 -31 -21 -3 0 11 -4 20 -10 20 -5 0
-10 -9 -10 -20 0 -27 -18 -25 -23 3 l-4 22 -2 -22 c-1 -28 -21 -31 -21 -3 0
11 -4 20 -10 20 -5 0 -10 -9 -10 -20 0 -27 -18 -25 -23 3 l-4 22 -2 -22 c-1
-27 -18 -31 -24 -5 -3 13 -4 12 -3 -3z"/>
<path d="M684 35 c-8 -19 4 -35 24 -34 15 1 15 2 0 6 -10 2 -18 11 -18 18 0 7
8 16 18 18 16 4 16 5 -1 6 -10 0 -20 -6 -23 -14z"/>
<path d="M733 33 c-3 -8 -1 -19 5 -25 13 -13 52 -1 52 18 0 20 18 18 23 -3 4
-17 5 -17 6 0 2 25 19 21 24 -5 4 -20 4 -19 6 4 1 27 0 27 -55 26 -37 -1 -58
-6 -61 -15z m40 -8 c1 -5 -6 -11 -15 -13 -11 -2 -18 3 -18 13 0 17 30 18 33 0z"/>
</g>
</svg>
