<?xml version="1.0" standalone="no"?>
<!DOCTYPE svg PUBLIC "-//W3C//DTD SVG 20010904//EN"
 "http://www.w3.org/TR/2001/REC-SVG-20010904/DTD/svg10.dtd">
<svg version="1.0" xmlns="http://www.w3.org/2000/svg"
 width="300.000000pt" height="74.000000pt" viewBox="0 0 300.000000 74.000000"
 preserveAspectRatio="xMidYMid meet">

  <!-- <defs>
    <filter id="f1" x="0" y="0" width="200%" height="200%">
      <feOffset result="offOut" in="SourceGraphic" dx="20" dy="20" />
      <feBlend in="SourceGraphic" in2="offOut" mode="normal" />
    </filter>
  </defs> -->


<g transform="translate(0.000000,74.000000) scale(0.100000,-0.100000)"
fill="#000000" fill-opacity="0.3" stroke="none">
<path d="M1167 734 c-4 -4 -7 -66 -7 -138 0 -109 3 -136 20 -170 40 -83 138
-116 220 -74 34 17 46 30 48 50 4 38 -30 56 -63 34 -36 -24 -87 -20 -113 7
-17 18 -22 36 -22 75 l0 52 64 0 c65 0 96 14 96 45 0 31 -31 45 -95 45 l-64 0
-3 38 c-3 35 -5 37 -38 40 -20 2 -39 0 -43 -4z"/>
<path d="M2437 733 c-4 -3 -7 -76 -7 -161 0 -174 8 -199 69 -228 40 -19 84
-10 89 19 5 23 -15 47 -39 47 -32 0 -39 34 -39 184 l0 146 -33 0 c-19 0 -37
-3 -40 -7z"/>
<path d="M2624 725 c-3 -8 -4 -74 -2 -148 3 -148 9 -164 74 -213 71 -55 182
-30 230 51 26 42 24 126 -2 162 -41 54 -70 68 -145 68 l-69 0 0 32 c0 17 -3
38 -6 47 -8 21 -72 22 -80 1z m210 -176 c45 -35 33 -106 -23 -128 -77 -33
-141 76 -75 128 15 12 37 21 49 21 12 0 34 -9 49 -21z"/>
<path d="M79 622 l-34 -30 -3 -121 -4 -121 26 -11 c46 -21 56 0 56 111 0 105
10 128 50 115 18 -6 20 -14 20 -111 0 -101 1 -105 25 -116 44 -20 55 2 55 106
0 99 12 131 46 124 17 -3 19 -14 22 -103 2 -74 7 -104 19 -117 20 -22 37 -23
57 -2 21 21 22 189 2 239 -19 45 -66 69 -120 61 -50 -8 -66 -8 -132 0 -47 5
-55 3 -85 -24z"/>
<path d="M554 631 c-17 -10 -41 -32 -52 -49 -86 -120 32 -281 177 -242 31 8
45 8 60 -2 17 -10 23 -9 42 7 19 18 21 28 17 106 -5 97 -23 140 -78 176 -43
29 -122 31 -166 4z m131 -86 c42 -41 30 -102 -24 -124 -77 -33 -141 76 -75
128 35 28 69 26 99 -4z"/>
<path d="M887 639 c-28 -16 -49 -68 -43 -104 10 -53 45 -76 121 -83 54 -4 65
-8 63 -21 -3 -13 -21 -17 -88 -21 -82 -5 -85 -6 -88 -31 -5 -42 17 -51 118
-48 82 4 92 6 117 32 38 38 38 96 0 135 -23 23 -38 28 -95 32 -51 4 -67 9 -67
20 0 12 17 16 77 20 86 6 104 16 94 54 -6 26 -8 26 -99 26 -50 0 -100 -5 -110
-11z"/>
<path d="M1575 634 c-46 -24 -63 -43 -81 -90 -29 -77 4 -157 82 -194 70 -34
164 -14 164 35 0 33 -30 48 -66 35 -31 -12 -79 2 -88 26 -4 11 13 14 98 14 72
0 107 4 114 13 14 16 2 73 -23 111 -38 58 -137 83 -200 50z m106 -74 c35 -19
20 -30 -43 -30 -60 0 -61 0 -43 20 20 22 55 26 86 10z"/>
<path d="M1932 633 c-18 -9 -45 -32 -60 -51 -23 -30 -27 -46 -30 -126 -4 -77
-1 -95 13 -109 19 -19 33 -21 55 -7 11 7 16 33 18 97 4 100 14 117 73 133 41
11 54 32 39 61 -13 24 -62 25 -108 2z"/>
<path d="M2140 628 c-58 -40 -82 -85 -78 -145 8 -101 100 -170 194 -145 33 9
50 9 68 0 45 -20 56 1 56 104 0 143 -40 198 -149 206 -46 3 -62 0 -91 -20z
m135 -84 c29 -31 32 -60 9 -92 -34 -49 -97 -48 -130 2 -49 76 60 156 121 90z"/>
<path d="M581 218 c-1 -72 1 -78 25 -97 27 -21 50 -26 78 -15 30 12 16 22 -23
17 -32 -4 -41 -2 -55 18 -9 13 -16 38 -16 56 0 32 1 33 40 33 22 0 40 5 40 10
0 6 -18 10 -39 10 -33 0 -40 4 -44 23 -2 12 -5 -13 -6 -55z"/>
<path d="M720 279 c0 -5 5 -7 10 -4 6 3 10 8 10 11 0 2 -4 4 -10 4 -5 0 -10
-5 -10 -11z"/>
<path d="M68 238 c-16 -5 -28 -17 -28 -25 0 -14 3 -14 20 2 14 13 28 16 57 11
37 -6 37 -6 13 8 -29 18 -27 17 -62 4z"/>
<path d="M195 225 c-21 -20 -25 -33 -24 -77 l1 -53 8 53 c9 59 23 82 51 82 11
0 19 5 19 10 0 18 -31 10 -55 -15z"/>
<path d="M276 229 c-18 -14 -26 -30 -26 -52 0 -38 7 -50 37 -66 29 -15 45 -14
69 4 17 13 16 14 -19 8 -28 -4 -42 -1 -57 12 -32 29 -24 35 45 35 58 0 65 2
65 19 0 22 -44 61 -70 61 -10 0 -29 -9 -44 -21z m92 -26 l14 -23 -61 0 c-33 0
-61 3 -61 7 0 3 8 15 17 25 23 25 71 20 91 -9z"/>
<path d="M452 240 c-50 -21 -54 -95 -6 -127 22 -14 31 -15 57 -5 21 8 33 9 35
2 9 -25 22 -6 22 30 0 51 -16 85 -47 99 -28 13 -30 13 -61 1z m72 -26 c36 -35
12 -94 -38 -94 -39 0 -58 19 -58 57 0 47 62 71 96 37z"/>
<path d="M720 176 c0 -44 4 -76 10 -76 6 0 10 30 10 69 0 39 -4 73 -10 76 -6
4 -10 -22 -10 -69z"/>
<path d="M760 238 c0 -17 39 -121 49 -131 4 -4 20 24 35 63 16 39 26 74 23 77
-6 5 -27 -39 -41 -85 -11 -34 -21 -26 -40 33 -16 53 -26 69 -26 43z"/>
<path d="M906 229 c-26 -20 -36 -69 -18 -95 21 -32 82 -44 102 -19 10 12 6 13
-24 8 -27 -4 -42 -1 -56 12 -32 29 -24 35 45 35 58 0 65 2 65 19 0 22 -44 61
-70 61 -10 0 -29 -9 -44 -21z m86 -16 c29 -26 21 -33 -42 -33 -33 0 -60 3 -60
7 0 3 7 15 17 25 20 22 61 23 85 1z"/>
<path d="M43 127 c7 -21 54 -32 83 -18 33 15 26 25 -8 12 -18 -7 -33 -5 -52 5
-20 10 -26 10 -23 1z"/>
</g>
</svg>
